# xmcd
#
# Track frame offsets:
#	150
#	20964
#	71144
#	122717
#	178939
#
# Disc length: 3194 seconds
#
# Revision: 0
# Processed by: cddbd v1.5.2PL0 Copyright (c) Steve Scherf et al.
# Submitted via: audiograbber 1.83.01
#
DISCID=4b0c7805
DTITLE=Grateful Dead - 93-09-08 Richfield Coliseum, Richfield OH
DYEAR=1900
DGENRE=
TTITLE0=Tuning
TTITLE1=Foolish Heart
TTITLE2=Estimated Prophet
TTITLE3=Eyes Of The World
TTITLE4=Drums
EXTD=
EXTT0=
EXTT1=
EXTT2=
EXTT3=
EXTT4=
PLAYORDER=
